<svg height='100px' width='100px'  fill="#000000" xmlns:dc="http://purl.org/dc/elements/1.1/" xmlns:cc="http://creativecommons.org/ns#" xmlns:rdf="http://www.w3.org/1999/02/22-rdf-syntax-ns#" xmlns:svg="http://www.w3.org/2000/svg" xmlns="http://www.w3.org/2000/svg" xmlns:sodipodi="http://sodipodi.sourceforge.net/DTD/sodipodi-0.dtd" xmlns:inkscape="http://www.inkscape.org/namespaces/inkscape" version="1.1" x="0px" y="0px" viewBox="0 0 100 100"><g transform="translate(0,-952.36218)"><path d="m 51.481291,1047.5388 c -1.810499,-0.8677 -4.593104,-1.8722 -6.183563,-2.2322 -3.094842,-0.7006 -11.069085,-4.5546 -15.062558,-7.2798 -7.605242,-5.1899 -13.509708,-16.1158 -17.718569,-32.7871 -1.091478,-4.3233 -1.310788,-6.07631 -1.304042,-10.42353 0.01429,-9.20414 1.809569,-18.63277 4.513949,-23.7067 2.206289,-4.13943 9.267836,-10.18397 15.172524,-12.98738 4.025962,-1.91144 7.253483,-2.38501 16.153984,-2.37027 8.413618,0.0139 12.461334,0.62093 17.456314,2.61773 1.933362,0.77289 5.648901,1.78944 8.256756,2.25903 5.673066,1.02152 8.081213,2.00045 10.083395,4.09897 1.781488,1.86721 1.683422,3.2168 -0.182208,2.50748 -1.841292,-0.70006 -2.203837,-0.51317 -1.159993,0.59795 1.145163,1.21897 1.836876,3.38044 1.836876,5.73987 0,0.93042 0.231303,2.12388 0.514011,2.65211 0.282703,0.52824 0.667067,2.6397 0.854139,4.69215 0.249815,2.74086 0.582609,4.03517 1.253353,4.8746 2.138699,2.67648 2.425165,3.64094 2.442735,8.22406 0.01346,3.51506 -0.204443,5.10877 -1.059046,7.74503 -1.254125,3.8688 -1.441763,9.0085 -0.508377,13.9253 0.670621,3.5326 0.446629,13.185 -0.367177,15.8226 -0.279053,0.9045 -1.346327,2.8954 -2.371724,4.4245 -1.726171,2.5739 -2.192374,2.9443 -6.290099,4.9958 -2.434163,1.2188 -5.302056,2.8624 -6.373096,3.6526 -1.071039,0.7902 -2.371187,1.4367 -2.889221,1.4367 -0.518034,0 -2.396389,0.6971 -4.174123,1.549 -2.769793,1.3274 -3.687946,1.5491 -6.417336,1.5491 -2.740367,0 -3.644717,-0.2203 -6.476904,-1.5776 z m 10.081433,-1.0114 c 0.556144,-0.1584 1.258342,-0.7857 1.560444,-1.3943 0.481415,-0.9698 0.918687,-1.1382 3.539678,-1.3642 1.644724,-0.1419 3.205534,-0.473 3.468472,-0.736 0.701517,-0.7015 0.05259,-1.4403 -1.265078,-1.4403 -0.631633,0 -2.381203,-0.6895 -3.887931,-1.532 -2.469161,-1.3809 -2.8848,-1.8285 -4.211905,-4.5364 -2.514216,-5.1302 -7.700442,-9.3371 -14.048754,-11.396 -2.775989,-0.9003 -2.668006,-1.795 0.169697,-1.406 2.496219,0.3421 5.527818,1.8965 9.22389,4.7294 1.62849,1.2481 3.022433,2.2021 3.097648,2.1197 0.07521,-0.082 0.365616,-1.8915 0.645341,-4.0205 0.279724,-2.129 1.09874,-5.7882 1.820036,-8.1314 1.646232,-5.3481 1.795628,-11.3253 0.413019,-16.5247 -1.007831,-3.79007 -0.852443,-5.44468 0.802088,-8.5408 0.61852,-1.15747 1.006552,-2.22248 0.862291,-2.36676 -0.144262,-0.14423 -1.281631,-0.0438 -2.527493,0.2235 -2.750899,0.58996 -10.600409,0.63125 -11.502886,0.0605 -1.203339,-0.76101 -0.02372,-1.06395 3.866485,-0.99292 2.126168,0.039 4.961134,-0.14756 6.299923,-0.41421 2.98353,-0.5941 7.105481,-2.63265 7.863236,-3.88877 0.504093,-0.83563 0.437017,-0.97729 -0.663861,-1.40217 -4.608024,-1.77843 -5.869752,-3.34293 -5.870965,-7.27989 -8.85e-4,-3.55354 2.00968,-6.49387 6.415243,-9.38091 1.946555,-1.27561 3.602404,-2.50892 3.67966,-2.74071 0.22701,-0.68101 -2.857777,-1.05197 -6.609595,-0.79482 -3.371411,0.23108 -3.485994,0.20686 -3.485994,-0.73713 0,-0.53684 0.221638,-1.19771 0.492529,-1.4686 1.727418,-1.72742 -2.932559,-2.83007 -13.12984,-3.10679 -8.99945,-0.24423 -12.519187,0.15671 -14.127796,1.60933 -0.492701,0.44492 -1.528433,0.92736 -2.30162,1.07209 -2.439994,0.45671 -5.241334,2.02773 -8.486373,4.75924 -5.874552,4.94492 -7.388584,7.80958 -9.22083,17.44651 -0.758954,3.99181 -1.110655,7.44734 -1.148632,11.28566 -0.04884,4.93639 0.09581,6.08165 1.343131,10.63375 3.845891,14.0356 8.522898,23.8457 13.886441,29.1272 2.203709,2.17 10.106516,6.2489 16.760293,8.6505 2.312453,0.8346 5.498993,2.1333 7.081198,2.8859 2.28766,1.0882 3.4205,1.3595 5.532187,1.3247 1.460498,-0.024 3.110479,-0.1734 3.666623,-0.3317 z m -14.750067,-8.6428 c -5.178755,-1.6749 -5.553651,-1.8675 -5.237714,-2.6908 0.184084,-0.4798 1.035988,-0.2304 3.829791,1.1206 1.976177,0.9556 4.151268,1.7376 4.833537,1.7376 0.80761,0 1.240493,0.2316 1.240493,0.6639 0,0.365 -0.04979,0.6508 -0.110643,0.635 -0.06085,-0.016 -2.110813,-0.6756 -4.555464,-1.4663 z m -16.798774,-9.5693 c -0.476592,-0.7711 0.229824,-1.4291 0.919679,-0.8565 0.340774,0.2829 0.510448,0.6908 0.377052,0.9067 -0.32285,0.5223 -0.958073,0.4977 -1.296731,-0.051 z m -5.194718,-10.4967 c -0.736582,-2.0739 -1.052081,-3.5707 -0.804779,-3.818 0.398499,-0.3984 0.803769,0.3686 2.710696,5.1313 0.787567,1.967 0.792307,2.1021 0.07367,2.1 -0.557144,0 -1.100736,-0.9387 -1.979593,-3.4133 z m 26.438312,-1.6855 c -0.973666,-0.5996 -1.969459,-1.1636 -2.212875,-1.2534 -0.243416,-0.089 -0.3072,-0.3091 -0.141748,-0.4876 0.274512,-0.2962 4.346209,2.1947 4.346209,2.6588 0,0.2976 -0.07174,0.2645 -1.991586,-0.9178 z m -4.093818,-21.30401 c -0.770602,-0.31095 -0.69321,-1.0346 0.110644,-1.0346 0.365124,0 0.663862,0.29873 0.663862,0.66385 0,0.36513 -0.04979,0.64816 -0.110644,0.6289 -0.06085,-0.0191 -0.359592,-0.13537 -0.663862,-0.25815 z m -11.196804,-7.87177 c -2.104341,-0.77535 -6.619388,-3.34463 -7.598966,-4.32417 -0.433493,-0.4335 -1.186485,-0.78819 -1.673318,-0.78819 -1.232142,0 -1.106503,-0.62818 0.442575,-2.21287 0.877896,-0.89808 1.327725,-1.80774 1.327725,-2.68492 0,-3.8217 4.017517,-8.64387 8.122373,-9.74919 1.022028,-0.27521 3.063636,-0.34027 4.995803,-0.15921 2.665906,0.24981 3.572061,0.54425 4.921936,1.59925 4.61685,3.60833 5.426792,11.83925 1.546804,15.71926 -2.682437,2.68245 -3.973857,3.24111 -7.416108,3.20832 -1.703913,-0.0164 -3.804887,-0.28998 -4.668824,-0.60828 z m 8.642979,-2.58384 c 0.968703,-0.54865 2.223815,-1.79013 2.789141,-2.75884 0.873516,-1.49678 0.993524,-2.17826 0.799172,-4.53815 -0.463668,-5.63004 -2.806722,-7.77115 -8.50408,-7.77115 -3.685676,0 -5.525681,0.9232 -7.515227,3.77069 -3.344207,4.78629 -1.720183,10.09599 3.497996,11.4366 1.02345,0.26289 2.059979,0.55117 2.303394,0.64054 1.488007,0.54635 5.022106,0.13073 6.629604,-0.77969 z m -11.26107,-2.49944 c -0.666182,-1.24479 -0.561234,-3.22553 0.230812,-4.35635 0.526912,-0.75227 1.128331,-0.98364 2.556976,-0.98364 3.862435,0 5.00349,2.4232 2.270851,4.82248 -1.876287,1.64741 -4.320137,1.89742 -5.058639,0.51751 z m -14.177966,-8.78456 c 0,-0.63624 4.81775,-4.96434 5.525977,-4.96434 0.322478,0 1.410738,-0.68879 2.418353,-1.53062 2.330568,-1.94714 11.286858,-4.89239 13.573111,-4.46348 1.366801,0.25641 2.275473,0.93686 1.836842,1.37549 -0.104953,0.10492 -1.709579,0.57925 -3.565831,1.054 -4.667018,1.19363 -7.724347,2.79354 -11.151183,5.83548 -2.575985,2.28665 -3.148637,2.59817 -4.785894,2.60349 -1.022883,0.003 -2.307895,0.12613 -2.855581,0.27291 -0.554512,0.1486 -0.995794,0.0675 -0.995794,-0.18293 z m 58.490148,65.82072 c 2.572298,-1.35 4.396321,-3.2667 5.778407,-6.072 1.420405,-2.8831 1.457259,-3.1056 1.603671,-9.6848 0.119903,-5.3878 -0.0013,-7.248 -0.607474,-9.3055 -1.080077,-3.6676 -0.956436,-6.4173 0.50404,-11.2091 1.03231,-3.38694 1.279497,-5.02308 1.280302,-8.47445 8.86e-4,-4.04934 -0.07064,-4.37937 -1.343958,-6.19606 -2.494409,-3.55883 -7.318347,-5.62786 -11.145287,-4.78025 -4.083124,0.90432 -9.490973,9.84009 -9.490973,15.68259 0,1.08356 0.124212,2.17117 0.276025,2.41687 0.151811,0.2457 0.461995,2.0771 0.689288,4.07 0.508102,4.455 0.004,8.3962 -1.790339,13.9978 -1.081786,3.3771 -1.314085,4.855 -1.314085,8.3607 0,2.3422 0.241327,5.064 0.536285,6.0485 0.709107,2.3667 2.958265,4.5462 5.55104,5.3789 2.402678,0.7717 7.812003,0.6386 9.473058,-0.2332 z m -7.95711,-4.258 c -2.383045,-1.1743 -3.650159,-3.2398 -4.081749,-6.6537 -0.393108,-3.1095 0.08128,-9.5254 0.941906,-12.7392 0.260747,-0.9737 0.61401,-5.9692 0.785035,-11.1013 l 0.310952,-9.33104 1.439033,-2.92307 c 2.304536,-4.68116 4.964565,-6.25955 8.806,-5.22513 2.665924,0.71786 3.879164,1.91932 5.047783,4.99884 1.614663,4.25496 1.486467,8.7716 -0.383146,13.4989 -1.75106,4.4276 -1.919858,8.402 -0.558968,13.1608 0.754506,2.6384 0.813895,3.4867 0.41815,5.9733 -0.624978,3.927 -3.146659,9.1067 -4.976724,10.2226 -1.767059,1.0774 -5.681301,1.1376 -7.748272,0.119 z m 6.470607,-1.9996 c 0.292099,-0.2922 0.53109,-0.6718 0.53109,-0.8436 0,-0.5287 -4.043217,-1.7234 -5.832313,-1.7234 -1.379958,0 -1.691459,0.1584 -1.691459,0.8601 0,0.473 0.442633,1.1701 0.983627,1.5489 1.172456,0.8213 5.238873,0.9282 6.009055,0.158 z m -0.35406,-5.0011 c 0,-1.6177 -0.589903,-2.0717 -1.069123,-0.8229 -0.335007,0.8731 0.07977,2.3718 0.656374,2.3718 0.22701,0 0.412749,-0.6969 0.412749,-1.5489 z m -6.196047,-0.4826 c 0,-1.2091 -1.117312,-1.8964 -1.865838,-1.148 -0.343106,0.3431 -0.266523,0.8023 0.27048,1.6219 0.866061,1.3218 1.595358,1.1051 1.595358,-0.4739 z m 9.665604,0.4617 c 0.745487,-1.6362 0.644832,-1.9708 -0.59282,-1.9708 -0.919862,0 -1.106437,0.2115 -1.106437,1.254 0,2.1023 0.89582,2.4802 1.699257,0.7168 z m -6.346293,-0.643 c 0,-1.213 -0.985503,-1.7154 -1.374841,-0.7007 -0.36631,0.9546 0.143364,2.1438 0.821857,1.9176 0.304141,-0.1012 0.552984,-0.649 0.552984,-1.2169 z m 5.08961,-3.5701 c 0,-1.012 -2.375856,-3.5111 -4.158441,-4.374 -2.113224,-1.0229 -4.792493,-1.1902 -5.495558,-0.3431 -0.257574,0.3103 -0.606354,1.6048 -0.775073,2.8767 l -0.306757,2.3124 5.367915,0 c 3.507396,0 5.367914,-0.1636 5.367914,-0.472 z m 2.202457,-2.0728 c -0.0057,-0.6694 -0.412839,-2.7107 -0.904686,-4.5363 -1.116793,-4.1453 -0.854789,-7.2965 0.993532,-11.9496 0.72519,-1.8256 1.35274,-4.1159 1.394554,-5.08957 l 0.07603,-1.77028 -5.974761,0 -5.97476,0 -0.340052,7.96635 c -0.187033,4.3815 -0.386191,8.5584 -0.442574,9.282 -0.09887,1.2687 -0.01904,1.3279 2.241694,1.659 3.097338,0.4536 4.533874,1.2486 6.579768,3.6411 0.933793,1.0919 1.84718,1.992 2.029741,1.9999 0.182563,0.011 0.327245,-0.5332 0.321514,-1.2026 z m -8.202479,-25.73906 c 0.136548,-0.22094 0.0857,-0.84117 -0.112994,-1.37827 -0.338809,-0.91587 -0.407633,-0.93021 -1.107296,-0.23054 -0.410319,0.41031 -0.746034,1.03054 -0.746034,1.37826 0,0.69237 1.567348,0.87612 1.966324,0.23055 z m 3.704547,-1.00257 c -0.173836,-1.76017 -0.908465,-2.04333 -1.659683,-0.63965 -0.676214,1.2635 -0.328262,2.04394 0.911297,2.04394 0.730471,0 0.862587,-0.24793 0.748386,-1.40429 z m 2.73805,0.54525 c 0,-0.47245 -0.17829,-0.96923 -0.396202,-1.10392 -0.475591,-0.29391 -1.039011,0.98841 -0.685552,1.5603 0.436037,0.70555 1.081754,0.43311 1.081754,-0.45638 z m 3.164411,0.19518 c 0,-0.23125 -0.214095,-0.49184 -0.475769,-0.57903 -0.261672,-0.0872 -0.475767,0.17332 -0.475767,0.57903 0,0.40571 0.214095,0.66624 0.475767,0.57902 0.261674,-0.0872 0.475769,-0.34778 0.475769,-0.57902 z m -1.394111,-4.21097 c 0,-1.11516 -2.409621,-2.64505 -4.169613,-2.6473 -1.351831,0 -2.911584,1.07412 -2.911584,2.00831 0,0.3179 1.060427,0.72671 2.544805,0.98101 4.074826,0.69816 4.536392,0.66333 4.536392,-0.34202 z m 2.212874,-10.43087 c 0,-1.02075 -0.185877,-1.52396 -0.521601,-1.41204 -1.450517,0.48352 -1.581484,2.99792 -0.156149,2.99792 0.482526,0 0.67775,-0.45683 0.67775,-1.58588 z m -4.77344,-0.45479 c 1.840616,-0.9518 3.540259,-4.76302 3.359994,-7.53432 -0.163501,-2.51349 -0.787072,-2.85615 -1.684577,-0.9257 -0.515725,1.10927 -0.980264,1.45851 -2.08178,1.56505 -3.156665,0.30536 -4.188975,-1.74229 -2.01981,-4.00641 1.013992,-1.05839 1.103344,-1.32925 0.553219,-1.6771 -1.003384,-0.63444 -3.815433,-0.50681 -5.649273,0.2564 -1.859023,0.77371 -5.161379,3.80201 -6.106688,5.59991 -1.383184,2.63071 -0.543552,6.22772 1.691787,7.24772 1.859544,0.84851 9.970552,0.4914 11.937128,-0.52555 z" style="" fill="#000000"></path></g></svg>