<svg xmlns="http://www.w3.org/2000/svg" xmlns:xlink="http://www.w3.org/1999/xlink" version="1.1" x="0px" y="0px" viewBox="0 0 100 125" enable-background="new 0 0 100 100" xml:space="preserve"><g><g><path d="M44.6,24.8C44.6,24.8,44.7,24.8,44.6,24.8c1.6,0.7,3.6-1.3,3-2.9c-0.2-0.5-1-0.3-1.4-0.3c-0.9,0-1.8-0.4-2.7-0.5    c-1.2-0.1-1.1,1-0.7,1.8C43.1,23.7,43.8,24.4,44.6,24.8z"/><path d="M41.8,16.2c-0.4-0.5-1.1-0.9-1.7-1.1c-1.2-0.4-2.9-0.1-3.4,1.2C36.4,17.1,36.6,18,37,19c0.3,0.7,0.7,1.4,1.2,1.9    c0.2,0.3,0.6,0.8,1,0.8c0.6,0,0.8-0.6,1.1-1.1c0.5-0.9,1.3-1.6,1.7-2.6C42.4,17.4,42.3,16.7,41.8,16.2z M39.3,18.9    c-0.9,0-1.7-0.7-1.7-1.7s0.7-1.7,1.7-1.7s1.7,0.7,1.7,1.7S40.3,18.9,39.3,18.9z"/><circle cx="39.3" cy="17.2" r="1.2"/><path d="M53.2,19.3c0-0.1,0.1-0.2,0.1-0.3c0.4-0.9,0.6-1.9,0.2-2.8c-0.6-1.3-2.2-1.6-3.4-1.2c-0.6,0.2-1.2,0.6-1.7,1.1    c-0.5,0.6-0.6,1.2-0.2,1.9c0.6,1.2,1.6,2.3,2.5,3.3c0.1,0.1,0.3,0.3,0.5,0.2C52.1,21.4,52.8,20.1,53.2,19.3z M50.9,19    c-0.9,0-1.7-0.7-1.7-1.7s0.7-1.7,1.7-1.7s1.7,0.7,1.7,1.7S51.8,19,50.9,19z"/><circle cx="50.9" cy="17.3" r="1.2"/><path d="M79,90.5c-0.1-0.2-0.2-0.3-0.3-0.4c-0.1-0.1-0.2-0.3-0.4-0.4c-4.1-4.4-6.1-10.3-8.1-15.9c-1.6-4.6-3.3-9.2-3.8-14    c-0.2-2.3,0-4.6-0.5-6.9c-0.5-2.2-1.2-4.2-2.2-6.2c-0.5-1-1-2-1.6-3c-1.9-3.3-3.9-6.7-4.9-10.4c-0.7-2.8-0.5-5.7,0.1-8.5    c0.3-1.4,0.7-2.8,1.2-4.2c0.4-1.2,1.1-2.7,0.8-3.9c-0.1-0.8-0.6-1.3-1.1-1.8c-2.4-2.6-5.5-4.7-8.7-6.1C48,8.1,46.2,8,44.6,8.6    C43.7,9,43.2,9,42.3,8.8C40,8.4,37.8,9.5,36,10.9c-1.3,1-2.5,2.2-3.7,3.4c-1,1.1-2.2,2.1-2.4,3.6c-0.3,1.4,0.4,2.7,0.8,4    c1.5,4.2,4.2,8.1,5,12.5c0.3,1.7,0,3-0.6,4.6c-2.8,7-2.7,14.3-4,21.6c-0.3,1.9,0,3.9-0.2,5.9c-0.3,2.2-1.2,4.2-1.6,6.3    c-1.1,5.5-2,11-5,15.9c-0.7,1.1,1,2.2,1.7,1.1c1.9-3,3.1-6.3,4-9.7c0.5-2,0.8-4,1.2-6c0.3-1.5,0.3-3.2,0.9-4.6    c0.9-2.1,1.6,0,1.9,1.2c0.5,1.8,0.7,3.6,0.9,5.4c0.3,2.3,0.7,4.5,1.5,6.7c0.6,1.6,1.3,3.6,2.7,4.6c1.9,1.2,3.2-0.8,3.6-2.4    c0.8-3.2,1-6.5,1-9.8c0.1-2.7-0.1-5.5-0.8-8.1c-1.2-4.2-4.6-8.3-4-12.8c0.1-0.4,0.2-1.1-0.2-1.5c-0.9-0.8-1.6,0.5-1.7,1.2    c-0.4,2.1,0.2,4.3,1,6.2c0.8,2,1.9,3.8,2.6,5.8c1.7,4.9,1.3,10.4,0.8,15.4c-0.1,0.8,0,4-1.2,4.2c-0.9,0.1-1.3-1.6-1.5-2.2    c-0.9-2.5-1.4-5-1.7-7.6c-0.3-2.5-0.7-5.1-1.9-7.4c-0.7-1.3-2-2-2.3-3.5c-0.3-1.4,0-2.9,0.2-4.3c0.6-3.2,0.8-6.4,1.1-9.6    c0.3-3.3,0.9-6.3,2.1-9.3c0.5-1.4,1.3-2.8,1.5-4.4c0.3-2.8-0.5-5.6-1.6-8.2c-0.6-1.3-1.2-2.6-1.8-3.9c-0.4-0.9-1.1-1.7-1.4-2.6    c-0.1-0.4-0.3-0.9-0.2-1.3c0.1-0.4,0.5-0.6,0.7-1c0.4-0.8,0.6-1.8,0.9-2.6c0.2-0.5,0.4-1,0.4-1.5c0-0.3-0.3-0.5-0.2-0.8    c0.1-0.6,1-1.1,1.4-1.4c0.6-0.5,1.2-1.1,1.8-1.5c1.3-0.9,2.7-1.6,4.4-1.4c1.2,0.1,2.2,0.1,3.3-0.3c1.1-0.4,2.5-0.4,3.6,0.1    c2.2,0.9,4.4,2.3,6.2,3.8c-0.2,0.8,0.1,1.6,0.3,2.4c0.2,0.8,0.3,1.6,0.5,2.4c0.1,0.5,0.3,1,0.6,1.3c0,0.1-0.1,0.2-0.1,0.4    c-0.9,2.6-1.6,5.3-1.7,8c-0.1,2.7,0.5,5.4,1.5,8c1.5,3.9,4.2,7.1,5.9,10.8c2,4.2,1.8,8.9,2.6,13.4c1.3,7.8,3.7,15.4,7.2,22.5    c1,2,2.1,4,3.5,5.8c0.6,0.8,1.3,1.5,2.1,2c0.4,0.2,1,0.4,1.3,0.1C79.1,91.2,79.1,90.8,79,90.5z"/><path d="M62.5,66.1c-0.2,0.2-0.4,0.4-0.7,0.7c-0.4,0.4-0.9,0.8-1.2,1.3c-0.6,1.2-1.1,2.5-1.4,4.1c-0.2,1.1-0.3,2.1-0.5,3.1    c-0.3,2.2-0.6,4.2-1.3,6.2l-0.1,0.3c-1.1,3.3-1.8,4.1-2.2,4.3c0,0-0.1-0.1-0.1-0.3c-0.5-1.2-0.7-2.6-0.8-4c0-0.3-0.1-0.6-0.1-0.9    c-0.3-2-0.4-3.7-0.4-5.4c-0.1-3.9,0.4-7.3,1.5-10.2c0.3-0.9,0.8-1.7,1.2-2.6c0.4-0.8,0.9-1.6,1.2-2.5c0.8-2.1,1.1-4.3,0.7-6.5    c-0.1-0.5-0.6-0.9-1.2-0.8c-0.5,0.1-0.9,0.6-0.8,1.2c0.3,1.8,0.1,3.7-0.5,5.4c-0.3,0.8-0.7,1.5-1.1,2.3c-0.5,0.9-1,1.8-1.3,2.8    c-1.2,3.2-1.8,6.8-1.7,11c0,1.7,0.2,3.6,0.4,5.6c0,0.3,0.1,0.6,0.1,0.9c0.2,1.5,0.4,3.1,0.9,4.5c0.1,0.3,0.4,1,1.1,1.3    c0.3,0.1,0.6,0.2,0.9,0.2c0.3,0,0.6-0.1,0.9-0.2c1.5-0.7,2.5-3.1,3.3-5.4l0.1-0.3c0.8-2.2,1.1-4.4,1.4-6.6c0.1-1,0.3-2,0.5-3    c0.2-1.4,0.6-2.5,1.2-3.5c0.1-0.3,0.4-0.5,0.8-0.8c0.3-0.3,0.7-0.6,0.9-1c0.3-0.4,0.2-1.1-0.2-1.4C63.4,65.6,62.8,65.7,62.5,66.1z    "/><path d="M49.8,26.1c-0.8-0.1-1.6,0-2.4,0.4c-0.6,0.4-1.2,0.9-2,0.7c-0.5-0.1-1-0.4-1.5-0.6c-1-0.5-2.5-0.9-3.2,0.3    c-0.1,0.2-0.1,0.5,0.2,0.7c0.5,0.3,0.9-0.4,1.3-0.5c0.6,0,1,0.4,1.5,0.6c0.6,0.3,1.1,0.5,1.8,0.6c0.7,0.1,1.3-0.2,1.9-0.5    c0.6-0.3,1.1-0.7,1.7-0.7c0.4,0,1.1,0.1,1.1-0.4C50.2,26.4,50,26.1,49.8,26.1z"/></g></g></svg>