<svg xmlns="http://www.w3.org/2000/svg" xmlns:xlink="http://www.w3.org/1999/xlink" version="1.1" x="0px" y="0px" viewBox="0 0 100 125" enable-background="new 0 0 100 100" xml:space="preserve"><path d="M9.9,78.5C7.8,70,15.5,63.8,20.6,62.8c-0.7-1.9-1.8-5.2-1.2-8.1c0.9-4.7,9.8-7.6,10-10.3c1.5-1.5-2.4-4.1-0.4-8.8  c1.5-3.5,8.4-3.5,8.4-4.9c0.1-1.4-2-6.7,2.9-10.5c-0.4-1.3-3.1-7.1,0.1-7.6c3.8-0.6,14.5,3.4,18.9,9.3c0.6,0.8,4.8,7.5,4.7,12.1  c1.8,0.2,6.4,2,8,5.3c1.2,2.4,1,6.1,0.7,7.6c3.6,0.7,6.7,3.1,8.1,6.6c1.8,4.4,0.3,8.3-0.8,9.6c0.2,0.9,9.8,3.4,9.8,11.3  c0,10.9-13,12.5-17.3,13.1c-1.3,0.2-2.9,0.2-4.9,0.2c0,0,0,0,0,0c-7.7,0-18.9-1.2-22.7-2.2c-1.7-0.4-3.4-0.6-5.3-0.6  c-4.3,0-9.9,2.5-16.3,2.9C15.8,88.4,11.2,84.2,9.9,78.5z M41.8,15.6c-1,1.5,1.7,3.3,1.4,5.4c-0.2,1.2-4,3.3-3.6,6.1  c0.4,2.8,1,3.3,0.6,5.2c-0.6,2.8-8.7,1.3-9.3,6.1c-0.2,1.5,2.9,3.9,0.2,9.3c-2.1,4.1-6.6,4.2-6.9,8c-0.3,3.8,2,4.3,1.6,7.5  c-0.5,4-11.3,4.9-10.8,13.4c0.4,6.7,7.4,7,7.9,6.9c6.7-0.4,13.6-3.4,17-2.9c1.4,0.2,21,2.8,27.4,2.8c6.7,0.1,18.6-1.4,18-8.2  c-0.4-5.2-7.6-6-9.1-7.7c-2.7-3,3.1-7.8,0.8-12.8c-1.6-3.5-7.6-1.9-7.3-4.9c1.2-12.8-7.5-12.4-8-12.8c-0.4-0.4-0.6-10-6.5-15  C52.1,19.3,42.9,14,41.8,15.6z"/><path d="M49,76.7c-11.8,0-14.6-9.1-14.6-9.1L49,67.5h14.6C63.6,67.5,61.7,76.7,49,76.7z M49,68.7c-7.5,0-13.2,0-13.2,0s4,6.9,13.2,7  c9.8,0.1,13.2-7,13.2-7S56.5,68.7,49,68.7z"/><path d="M37.7,64.8c-5.1,0-9.2-4.9-9.2-10.9s4.1-10.9,9.2-10.9s9.2,4.9,9.2,10.9S42.8,64.8,37.7,64.8z M37.7,43.9  c-4.5,0-8.2,4.4-8.2,9.9s3.7,9.9,8.2,9.9s8.2-4.4,8.2-9.9S42.2,43.9,37.7,43.9z"/><path d="M61.7,64.8c-5.1,0-9.2-4.9-9.2-10.9s4.1-10.9,9.2-10.9s9.2,4.9,9.2,10.9S66.8,64.8,61.7,64.8z M61.7,43.9  c-4.5,0-8.2,4.4-8.2,9.9s3.7,9.9,8.2,9.9s8.2-4.4,8.2-9.9S66.2,43.9,61.7,43.9z"/><ellipse cx="37.3" cy="54.2" rx="4.1" ry="5.8"/><ellipse cx="61.7" cy="54.2" rx="4.1" ry="5.8"/></svg>