<?xml version="1.0" encoding="iso-8859-1"?>
<!-- Generator: Adobe Illustrator 18.0.0, SVG Export Plug-In . SVG Version: 6.00 Build 0)  -->
<!DOCTYPE svg PUBLIC "-//W3C//DTD SVG 1.1//EN" "http://www.w3.org/Graphics/SVG/1.1/DTD/svg11.dtd">
<svg version="1.1" id="Capa_1" xmlns="http://www.w3.org/2000/svg" xmlns:xlink="http://www.w3.org/1999/xlink" x="0px" y="0px"
	 viewBox="0 0 60 60" style="enable-background:new 0 0 60 60;" xml:space="preserve">
<path d="M30,0C13.458,0,0,13.458,0,30c0,5.143,1.302,9.988,3.593,14.223l-0.006,0.01l0.285,0.504
	c0.118,0.209,0.245,0.412,0.368,0.618c0.054,0.09,0.106,0.181,0.161,0.271c0.226,0.369,0.459,0.732,0.699,1.089
	c0.014,0.021,0.027,0.042,0.041,0.062c2.437,3.61,5.614,6.628,9.303,8.867c0.012,0.007,0.024,0.014,0.036,0.022
	c0.375,0.227,0.755,0.446,1.14,0.656c0.077,0.042,0.155,0.083,0.232,0.125c0.318,0.17,0.639,0.336,0.964,0.494
	c0.135,0.066,0.27,0.131,0.406,0.195c0.267,0.126,0.536,0.248,0.808,0.366c0.188,0.082,0.376,0.163,0.566,0.241
	c0.059,0.024,0.116,0.051,0.175,0.074l-0.028,0.032l1.4,0.485c0.002,0.001,0.003,0.001,0.005,0.002l0.636,0.222l0.008-0.009
	c0.194,0.063,0.388,0.123,0.583,0.182c0.046,0.014,0.091,0.03,0.137,0.044l0.234,0.069l0.016-0.003C24.381,59.59,27.143,60,30,60
	c16.542,0,30-13.458,30-30S46.542,0,30,0z M42,17c0.505,0,0.922-0.374,0.99-0.86c0.4-0.165,1.562-0.157,2.21-0.158l0.346,0.001
	c0.047,0,0.088-0.021,0.133-0.027c0.963,1.852,1.13,4.008,0.434,5.973c-0.735,2.079-2.327,3.723-4.366,4.51
	c-0.555,0.214-1.079,0.481-1.586,0.775c-0.171-0.137-0.379-0.231-0.616-0.231c-1.936,0-3-0.751-3-1c0-0.553-0.448-1-1-1
	s-1,0.447-1,1c0,1.382,1.415,2.476,3.458,2.851c-0.052,0.05-0.108,0.093-0.159,0.144L25.314,41.509l-4.391,4.39l0,0.001l0,0
	l0.29,0.632c0.577,1.258,0.87,2.587,0.87,3.951c0,0.274-0.014,0.546-0.037,0.817c-0.008,0.087-0.022,0.172-0.032,0.259
	c-0.021,0.184-0.043,0.368-0.075,0.549c-0.018,0.1-0.041,0.199-0.062,0.299c-0.035,0.167-0.071,0.333-0.115,0.497
	c-0.027,0.102-0.058,0.202-0.089,0.302c-0.049,0.16-0.099,0.32-0.156,0.478c-0.035,0.098-0.073,0.195-0.112,0.292
	c-0.063,0.158-0.13,0.315-0.202,0.47c-0.042,0.091-0.085,0.181-0.13,0.27c-0.08,0.16-0.166,0.318-0.256,0.474
	c-0.046,0.079-0.09,0.159-0.138,0.237c-0.103,0.167-0.212,0.33-0.325,0.491c-0.044,0.062-0.085,0.125-0.13,0.186
	c-0.025,0.034-0.054,0.065-0.079,0.099c-0.039-0.015-0.076-0.031-0.115-0.045c-0.651-0.248-1.289-0.52-1.916-0.815
	c-0.069-0.032-0.14-0.061-0.208-0.094c-0.589-0.282-1.162-0.593-1.729-0.915c-0.173-0.099-0.348-0.196-0.519-0.299
	c-0.508-0.303-1.003-0.624-1.49-0.958c-0.209-0.144-0.415-0.292-0.62-0.441c-0.442-0.322-0.877-0.653-1.299-1
	c-0.214-0.176-0.421-0.36-0.63-0.542c-0.32-0.279-0.634-0.566-0.942-0.86c-0.24-0.23-0.478-0.462-0.71-0.7
	c-0.337-0.346-0.666-0.701-0.986-1.065c-0.164-0.186-0.328-0.372-0.487-0.562c-0.379-0.455-0.744-0.924-1.095-1.404
	c-0.124-0.17-0.245-0.341-0.366-0.514c-0.363-0.521-0.714-1.052-1.043-1.6c-0.026-0.044-0.05-0.089-0.076-0.133
	c0.529-0.799,1.153-1.537,1.793-2.118L27.572,22.28c0.688-0.689,1.128-1.607,1.24-2.585c0.318-2.803,2.134-5.168,4.74-6.173
	l2.559-0.987c2.84-1.093,5.99-0.452,8.071,1.455c-1.096,0.029-2.068,0.164-2.672,0.767C41.176,15.088,41,15.518,41,16
	C41,16.553,41.448,17,42,17z M26.019,43.633c1.321,1.464,2.064,3.368,2.064,5.35c0,3.6-2.412,6.736-5.824,7.696
	c0.031-0.049,0.058-0.1,0.089-0.149c0.072-0.116,0.141-0.233,0.209-0.352c0.093-0.163,0.182-0.328,0.267-0.494
	c0.056-0.111,0.114-0.221,0.167-0.333c0.104-0.222,0.2-0.448,0.29-0.675c0.024-0.06,0.051-0.118,0.074-0.178
	c0.107-0.287,0.201-0.578,0.285-0.872c0.028-0.096,0.05-0.194,0.075-0.291c0.054-0.21,0.104-0.421,0.146-0.634
	c0.022-0.109,0.041-0.218,0.06-0.328c0.036-0.215,0.065-0.432,0.089-0.649c0.011-0.098,0.024-0.196,0.032-0.294
	c0.026-0.314,0.043-0.629,0.043-0.946c0-1.421-0.261-2.81-0.777-4.137L26.019,43.633z M30,58c-1.642,0-3.248-0.15-4.813-0.422
	c2.961-1.761,4.896-4.992,4.896-8.595c0-2.514-0.955-4.926-2.649-6.765L39.26,30.391c0.917-0.917,1.997-1.619,3.208-2.087
	c2.585-0.997,4.601-3.077,5.532-5.708c0.927-2.62,0.659-5.511-0.735-7.931c-2.304-3.999-7.409-5.718-11.874-3.995l-2.559,0.987
	c-3.303,1.272-5.605,4.267-6.007,7.813c-0.06,0.53-0.297,1.026-0.667,1.396L6.365,40.657C5.84,41.133,5.331,41.7,4.859,42.311
	C3.031,38.593,2,34.415,2,30C2,14.561,14.561,2,30,2s28,12.561,28,28S45.439,58,30,58z"/>
<g>
</g>
<g>
</g>
<g>
</g>
<g>
</g>
<g>
</g>
<g>
</g>
<g>
</g>
<g>
</g>
<g>
</g>
<g>
</g>
<g>
</g>
<g>
</g>
<g>
</g>
<g>
</g>
<g>
</g>
</svg>
