<svg xmlns="http://www.w3.org/2000/svg" xmlns:xlink="http://www.w3.org/1999/xlink" xmlns:sketch="http://www.bohemiancoding.com/sketch/ns" viewBox="0 0 100 125" version="1.1" x="0px" y="0px"><title>thug-3</title><desc>Created with Sketch.</desc><g stroke="none" stroke-width="1" fill="none" fill-rule="evenodd" sketch:type="MSPage"><path d="M80.2373034,51.4316854 L77.5406742,51.4316854 L77.5406742,48.7350562 L80.2373034,48.7350562 L80.2373034,51.4316854 Z M77.5359551,48.7303371 L74.8393258,48.7303371 L74.8393258,46.0337079 L77.5359551,46.0337079 L77.5359551,48.7303371 Z M74.8393258,51.4316854 L72.1426966,51.4316854 L72.1426966,48.7350562 L74.8393258,48.7350562 L74.8393258,51.4316854 Z M72.1379775,48.7303371 L69.4413483,48.7303371 L69.4413483,46.0337079 L72.1379775,46.0337079 L72.1379775,48.7303371 Z M46.7202247,54.1283146 L44.0235955,54.1283146 L44.0235955,51.4316854 L41.3269663,51.4316854 L41.3269663,48.7350562 L44.0235955,48.7350562 L44.0235955,51.4316854 L46.7202247,51.4316854 L46.7202247,54.1283146 Z M41.3225843,48.7303371 L38.6259551,48.7303371 L38.6259551,46.0337079 L41.3225843,46.0337079 L41.3225843,48.7303371 Z M41.3225843,54.1283146 L38.6259551,54.1283146 L38.6259551,51.4316854 L35.9293258,51.4316854 L35.9293258,48.7350562 L38.6259551,48.7350562 L38.6259551,51.4316854 L41.3225843,51.4316854 L41.3225843,54.1283146 Z M35.9246067,48.7303371 L33.2279775,48.7303371 L33.2279775,46.0337079 L35.9246067,46.0337079 L35.9246067,48.7303371 Z M7.62078652,43 L7.62078652,45.6966292 L5,45.6966292 L5,48.3932584 L10.1461798,48.3932584 L10.1461798,45.6966292 L27.5660674,45.6966292 L27.5660674,48.7397753 L30.2626966,48.7397753 L30.2626966,51.7825843 L33.1322472,51.7825843 L33.1322472,54.4792135 L36.1595506,54.4792135 L36.1595506,57.1758427 L54.6924719,57.1758427 L54.6924719,54.4792135 L57.2269663,54.4792135 L57.2269663,51.7825843 L59.9316854,51.7825843 L59.9316854,45.9207865 L63.7116854,45.9207865 L63.7116854,48.7303371 L66.4126966,48.7303371 L66.4126966,51.7825843 L69.3668539,51.7825843 L69.3668539,54.4792135 L71.2130337,54.4792135 L71.2130337,57.1758427 L86.0964045,57.1758427 L86.0964045,54.4792135 L89.1193258,54.4792135 L89.1193258,51.7825843 L91.8206742,51.7825843 L91.8206742,48.7397753 L94.6396629,48.7397753 L94.6396629,43 L7.62078652,43 Z" fill="#000000" sketch:type="MSShapeGroup" transform="translate(49.819831, 50.087921) scale(-1, 1) translate(-49.819831, -50.087921) "/></g></svg>