<?xml version="1.0" encoding="UTF-8" standalone="no"?>
<!-- Created with Inkscape (http://www.inkscape.org/) -->

<svg
   xmlns:dc="http://purl.org/dc/elements/1.1/"
   xmlns:cc="http://creativecommons.org/ns#"
   xmlns:rdf="http://www.w3.org/1999/02/22-rdf-syntax-ns#"
   xmlns:svg="http://www.w3.org/2000/svg"
   xmlns="http://www.w3.org/2000/svg"
   xmlns:sodipodi="http://sodipodi.sourceforge.net/DTD/sodipodi-0.dtd"
   xmlns:inkscape="http://www.inkscape.org/namespaces/inkscape"
   id="svg3336"
   version="1.1"
   inkscape:version="0.91 r13725"
   width="1954"
   height="1783"
   viewBox="0 0 1954 1783"
   sodipodi:docname="trollface.svg">
  <metadata
     id="metadata3342">
    <rdf:RDF>
      <cc:Work
         rdf:about="">
        <dc:format>image/svg+xml</dc:format>
        <dc:type
           rdf:resource="http://purl.org/dc/dcmitype/StillImage" />
        <dc:title></dc:title>
      </cc:Work>
    </rdf:RDF>
  </metadata>
  <defs
     id="defs3340" />
  <sodipodi:namedview
     pagecolor="#ffffff"
     bordercolor="#666666"
     borderopacity="1"
     objecttolerance="10"
     gridtolerance="10"
     guidetolerance="10"
     inkscape:pageopacity="0"
     inkscape:pageshadow="2"
     inkscape:window-width="1366"
     inkscape:window-height="745"
     id="namedview3338"
     showgrid="false"
     inkscape:zoom="0.22843158"
     inkscape:cx="1861.7377"
     inkscape:cy="1060.3636"
     inkscape:window-x="-8"
     inkscape:window-y="-8"
     inkscape:window-maximized="1"
     inkscape:current-layer="svg3336" />
  <path
     style="fill:#000000"
     d="m 453.24876,1669.4503 c -99.07499,-5.6642 -175.4655,-34.7622 -228.01572,-86.8538 -26.8173,-26.5833 -53.83664,-68.8301 -56.19245,-87.8613 -1.36158,-10.9994 -1.30247,-76.4362 0.0882,-97.663 2.60225,-39.7194 6.66754,-78.4661 14.58383,-139 16.00131,-122.3581 17.46607,-184.9468 5.93268,-253.5 -5.86313,-34.84987 -13.5754,-55.02895 -46.50975,-121.69232 -27.14291,-54.94075 -36.77469,-78.59743 -43.826363,-107.64221 -5.597754,-23.05631 -6.583623,-31.90179 -6.538531,-58.66545 0.04418,-26.22136 0.899537,-33.65474 6.098708,-53 3.765546,-14.01098 6.533226,-20.09426 14.744856,-32.40874 10.38685,-15.57655 22.38586,-29.22833 53.83947,-61.25541 34.23714,-34.86135 45.52757,-48.7845 57.03606,-70.33585 13.35362,-25.00661 19.30014,-50.40584 20.43432,-87.28056 l 0.6084,-19.78057 9.0721,-8.63327 c 45.17424,-42.98916 106.58386,-79.54136 181.74378,-108.17743 170.81661,-65.08146 413.11504,-89.53847 763.88105,-77.10428 38.4025,1.36131 84.9933,3.411 139,6.11508 43.4537,2.1757 43.5245,2.17598 66.5,0.26952 13.6343,-1.13134 31.5513,-1.88718 44,-1.85616 23.6297,0.0589 31.028,1.30777 47.0595,7.944 41.2984,17.09555 97.1726,67.74943 138.4643,125.52772 16.8247,23.54241 25.248,40.67822 42.7541,86.97595 16.0356,42.40898 22.9596,57.4903 34.663,75.5 14.2002,21.8519 37.5973,46.44551 77.5433,81.50865 43.2448,37.95879 57.8894,52.2993 74.5391,72.99135 25.2217,31.34512 37.9859,62.15712 42.4618,102.5 1.3166,11.86715 1.2883,43.35171 -0.051,57.07632 -2.3498,24.07394 -7.8699,43.53333 -18.4172,64.92368 -14.6462,29.70318 -25.8603,43.6626 -75.5166,94.00403 -40.1197,40.67325 -52.4136,54.30745 -66.9006,74.19405 -17.1523,23.5452 -24.5822,38.1334 -39.3704,77.3019 -15.1877,40.2264 -20.266,50.2785 -35.9402,71.1405 -18.3102,24.3703 -48.7324,56.0232 -74.7352,77.7584 -26.4084,22.0742 -65.3579,49.4032 -99.5536,69.852 -51.6881,30.9091 -99.1977,54.8228 -215,108.2188 -77.8099,35.8779 -109.7739,51.3168 -155.5,75.1078 -112.8821,58.732 -124.6671,62.8545 -230.00002,80.4561 -46.92337,7.8411 -56.23858,9.7269 -108.5,21.9654 -146.51143,34.3099 -245.00379,46.4945 -334.48062,41.3791 z m 120.98062,-44.2948 c 75.45429,-6.468 151.99265,-19.3032 209.5,-35.1325 20.58251,-5.6655 33.41353,-9.8876 69,-22.705 57.99714,-20.8891 75.75598,-24.2141 108.70218,-20.352 17.15232,2.0106 24.76368,2.0248 32.33772,0.06 17.03612,-4.4189 53.53052,-22.0061 111.96012,-53.9553 43.0451,-23.537 66.2314,-34.9732 148,-72.9979 137.0096,-63.7134 199.9103,-97.0073 260.4785,-137.8735 59.7685,-40.3266 109.1583,-86.9525 136.2991,-128.6716 12.3514,-18.9858 18.441,-32.7665 32.2387,-72.9558 11.8272,-34.45 18.8798,-49.3745 30.8431,-65.2701 7.0905,-9.421 12.643,-14.2284 27.8906,-24.14769 6.4625,-4.20418 11.75,-7.873 11.75,-8.15292 0,-0.45136 -3.9313,-8.55404 -4.4511,-9.17414 -0.1129,-0.13468 -5.0147,2.64362 -10.8928,6.174 -12.1401,7.29125 -15.3282,8.33052 -19.2505,6.2754 -2.7192,-1.42474 -2.7075,-1.43385 10.6851,-8.31542 14.7386,-7.57324 37.6837,-22.44048 50.9093,-32.98665 13.0093,-10.37369 35.5956,-33.58004 45.256,-46.49831 21.9702,-29.37963 33.6917,-56.0809 39.9057,-90.90415 2.1055,-11.79939 1.7906,-46.08817 -0.5372,-58.5 -7.1496,-38.12114 -25.2512,-72.51273 -53.577,-101.79185 -20.2243,-20.90501 -37.8723,-33.81727 -62.7105,-45.88261 -22.2629,-10.81437 -43.9435,-17.25123 -70.837,-21.03118 -10.9343,-1.53684 -53.3985,-1.55761 -65.4997,-0.032 -4.6749,0.58935 -8.6391,0.93222 -8.8094,0.76194 -0.6062,-0.6062 10.3933,-6.35352 15.3091,-7.9991 7.6625,-2.56506 29.4442,-3.03506 52.5448,-1.13379 20.5824,1.69401 42.5168,2.12695 43.3031,0.85471 0.2563,-0.41465 -2.6679,-4.57715 -6.4981,-9.25 -24.8394,-30.3038 -41.3945,-59.03701 -78.068,-135.49609 -14.5667,-30.36937 -27.2905,-54.61783 -37.8587,-72.14935 -32.3763,-53.70885 -68.2001,-87.84046 -109.4231,-104.25416 -28.6544,-11.40929 -45.7351,-13.55753 -120,-15.09246 -25.85,-0.53427 -57.125,-1.4368 -69.5,-2.00561 -39.2225,-1.80286 -127.0971,-3.12306 -167,-2.50896 -113.4655,1.74622 -200.40696,6.2076 -303.50002,15.57401 -76.64895,6.96387 -207.75475,23.09521 -204.14089,25.11762 2.15187,1.20425 27.9652,5.4487 40.89077,6.72361 25.24728,2.49027 57.54411,3.32803 84.11723,2.18195 43.8507,-1.89125 73.96266,-4.92792 154.28212,-15.55874 91.4319,-12.10162 117.36019,-14.47991 166.10549,-15.23612 57.0057,-0.88437 90.9612,2.75849 138.7453,14.88509 87.5056,22.20706 165.9923,65.83261 286.25,159.10749 10.5875,8.21193 19.25,15.11113 19.25,15.33156 0,0.99158 -23.9944,-11.73673 -38.5,-20.42312 -8.8,-5.26969 -34.45,-21.48948 -57,-36.04397 -66.3736,-42.83962 -100.7196,-62.73775 -134.9576,-78.18681 -67.1047,-30.27905 -130.4472,-44.96176 -193.9701,-44.96176 -43.7003,0 -73.8962,2.93288 -169.57232,16.4703 -125.05109,17.69376 -153.72778,18.83788 -251,10.01421 -80.25554,-7.28006 -107.23992,-6.98576 -149.5,1.63049 -84.0824,17.14324 -167.2796,64.71941 -227.13199,129.885 l -12.3993,13.5 0.62235,12.5 c 0.34282,6.88558 0.10816,18.78815 -0.52244,26.5 -2.00078,24.46827 -6.17457,40.04785 -15.73726,58.74277 -10.00832,19.56613 -19.09725,30.85193 -53.15471,66.0026 -12.65378,13.05996 -25.82182,27.23496 -29.26231,31.5 -26.24137,32.53045 -37.84754,66.75869 -37.89602,111.76076 -0.0196,18.20831 1.72819,36.50768 5.04831,52.85522 3.9606,19.50113 13.44354,38.99697 33.71984,69.32413 11.1608,16.69314 23.45915,36.84668 27.95753,45.81452 9.39443,18.72849 17.98677,46.99327 22.64758,74.5 5.99701,35.39248 7.58779,56.24928 7.59964,99.63908 0.0141,51.5783 -2.21435,81.7638 -13.49973,182.8609 -11.94472,107.0038 -13.85228,131.9191 -13.93422,182 l -0.0573,35 2.8124,9 c 5.09393,16.3011 12.63632,30.9169 23.26908,45.091 40.10482,53.4625 114.09082,83.5838 224.41852,91.3659 19.37925,1.3669 94.39151,0.4787 116,-1.3736 z m -84.5,-122.6933 c -51.3465,-3.2379 -93.78057,-12.6988 -125,-27.8692 -27.88498,-13.5501 -51.21051,-33.1978 -65.91373,-55.5208 l -5.26926,-8 -1.67134,-13.5 c -1.9263,-15.5594 -2.04762,-26.9976 -0.33923,-31.983 0.84468,-2.4649 2.43585,-4.1675 5.44356,-5.8249 l 4.25,-2.3419 0,29.0059 0,29.006 7.65621,6.6773 c 15.12872,13.1945 28.0622,21.8448 46.39465,31.0302 43.88331,21.9877 101.08154,34.9918 178.44914,40.5707 21.9087,1.5798 97.71972,1.5825 125,0 153.32921,-8.8695 280.92338,-31.1034 417.00002,-72.6641 112.6527,-34.4066 213.279,-76.2012 332,-137.8946 44.7105,-23.2338 70.7827,-32.7767 96,-35.1374 l 7,-0.6553 -9.5,6.2458 c -54.7891,36.0217 -144.2183,80.8011 -230,115.1668 -187.7964,75.2345 -391.486,119.5655 -605.50002,131.7811 -51.45823,2.9372 -143.77158,3.9353 -176,1.903 z m 79.5,-60.4746 c -59.91843,-3.2617 -95.29523,-10.2253 -124.68528,-24.5433 -22.48939,-10.9562 -40.69229,-27.8211 -50.0512,-46.3721 -2.86125,-5.6715 -7.16455,-17.9509 -8.76121,-25 -1.293,-5.7084 -1.27748,-5.8792 0.31932,-3.5152 6.3874,9.4564 14.42368,18.9637 22.89069,27.0807 37.3768,35.832 94.57826,55.8829 188.28768,66.0009 24.42991,2.6377 84.38793,3.7755 108.59549,2.0607 8.74748,-0.6197 34.80451,-1.7968 57.90451,-2.616 114.77703,-4.0699 161.96101,-8.4872 214.63401,-20.0938 65.97501,-14.5377 122.87141,-36.7645 237.86601,-92.9231 98.0235,-47.8706 130.3209,-61.2131 169.2693,-69.9277 10.4432,-2.3366 30.8607,-5.6813 31.4538,-5.1525 0.1227,0.1093 -6.6273,2.8198 -15,6.0233 -37.5476,14.3658 -66.8189,27.7651 -149.2231,68.3084 -61.0018,30.0133 -84.529,41.137 -110.9354,52.4503 -69.9695,29.977 -133.3101,49.3584 -188.56462,57.6984 -28.93202,4.367 -44.11074,5.418 -74,5.124 -57.75328,-0.5681 -78.44261,-0.2658 -97.5,1.4247 -12.32385,1.0931 -37.79863,2.0009 -72.5,2.5833 -73.188,1.2285 -132.19388,1.8139 -140,1.389 z m 101,-53.389 c -11.275,-0.4431 -25,-1.3404 -30.5,-1.9938 -11.81759,-1.404 -29.61908,-4.7097 -32.77183,-6.0856 -1.45512,-0.6351 30.73148,-0.8301 92.77183,-0.5622 77.89434,0.3365 98.51116,0.141 114.5,-1.0854 27.83412,-2.1349 53.31056,-1.3625 66,2.0013 21.14729,5.6057 21.11395,5.613 -26,5.695 -23.375,0.041 -53.75,0.4877 -67.5,0.9933 -38.98903,1.4335 -93.96693,1.9232 -116.5,1.0374 z m 28,-41.6887 c -115.58594,-4.9256 -186.90295,-14.012 -250.23163,-31.8816 -46.29981,-13.0645 -70.01425,-26.087 -87.91501,-48.2773 -33.3706,-41.3671 -54.43868,-108.1016 -63.03863,-199.6788 -1.76103,-18.7524 -1.77932,-94.94757 -0.0274,-113.99998 2.04195,-22.20619 5.17414,-46.20213 7.35548,-56.35094 4.93342,-22.95304 16.56464,-50.79042 36.56409,-87.51008 8.57374,-15.74168 9.17127,-17.67019 10.84779,-35.01052 1.68234,-17.4006 2.87021,-22.02372 6.37392,-24.80692 2.28922,-1.81846 3.44548,-1.97104 10.53797,-1.39059 4.38163,0.35858 8.28977,1.17486 8.68474,1.81394 1.74573,2.82464 5.93373,17.30172 7.34308,25.38351 0.84803,4.86297 2.21366,19.19848 3.03474,31.85668 1.7069,26.31457 2.79409,35.47038 5.50038,46.32184 1.849,7.41398 2.18258,7.94176 9.19453,14.54752 61.00943,57.47527 150.70964,92.75097 262.77592,103.33984 26.55714,2.50932 106.76505,2.51057 136,0.002 117.59532,-10.09004 238.88765,-36.72336 382.00005,-83.87942 111.3783,-36.69957 218.4902,-79.75236 356.1414,-143.14825 l 7.6415,-3.51929 0.3601,-15.32472 c 0.338,-14.37898 0.5328,-15.67639 3.1568,-21.02298 1.756,-3.57787 4.0206,-6.45467 6.0858,-7.73103 2.665,-1.6471 13.0539,-3.95785 18.2124,-4.05091 0.6876,-0.0124 1.3333,3.82397 1.7272,10.26176 0.7834,12.80453 4.5434,28.04636 9.1814,37.21843 8.423,16.65715 21.9658,28.62417 53.4934,47.26915 10.725,6.34261 23.1,14.03592 27.5,17.09624 8.3321,5.79518 23.505,20.26393 23.4932,22.4028 0,0.6775 -1.6109,2.32434 -3.5715,3.65966 -10.1026,6.88091 -22.7858,7.73763 -46.6985,3.15437 -21.0904,-4.04233 -24.264,-4.38886 -28.2244,-3.08183 -4.6301,1.52808 -7.2551,4.9026 -13.864,17.82294 -8.9204,17.43931 -10.364,26.22757 -6.5175,39.67667 3.9529,13.82079 4.5611,12.01337 -8.3214,24.72942 -21.9289,21.64566 -36.1247,40.19762 -74.8129,97.77059 -43.053,64.0683 -62.1144,88.8016 -91.9453,119.3049 -24.3632,24.9123 -40.3688,38.4902 -73.5377,62.3834 -81.07,58.3988 -178.4414,105.6561 -259,125.7008 -59.9959,14.9282 -142.3273,24.5262 -245.50005,28.6198 -21.45308,0.8513 -122.18855,1.0878 -140,0.3288 z m 16.34912,-42.9844 c 9.08509,-0.768 8.61355,0.8974 5.62114,-19.8533 -4.97357,-34.489 -12.5249,-53.6559 -27.24398,-69.1513 -7.76839,-8.1781 -17.55966,-13.8084 -29.72628,-17.0936 -9.70328,-2.62 -35.89231,-2.331 -49.88898,0.5506 -5.71394,1.1764 -10.62354,2.3735 -10.91022,2.6602 -1.38711,1.3871 5.49129,18.1105 20.16792,49.0341 4.69863,9.9 10.47534,23.9223 12.83712,31.1608 l 4.29416,13.1607 7,2.12 c 10.8061,3.2725 28.6731,6.1851 43,7.0096 7.15,0.4115 13.94461,0.8158 15.09912,0.8985 1.15452,0.083 5.54202,-0.1406 9.75,-0.4963 z m 151.80914,-1.9519 c 12.53911,-1.6243 30.52234,-5.682 32.07862,-7.2383 0.4737,-0.4737 -0.047,-3.1445 -1.16722,-5.9864 -6.24242,-15.8371 -7.38319,-33.4044 -5.65514,-87.0864 l 0.91453,-28.4096 -2.41453,0.6896 c -25.27896,7.22 -53.8776,13.4166 -74.23879,16.0857 -16.77652,2.1992 -45.0539,3.4731 -60.02205,2.7041 -7.06547,-0.3631 -13.00587,-0.4013 -13.20088,-0.085 -0.51748,0.8393 2.86482,21.3181 9.0941,55.0621 3.00912,16.3004 6.26454,35.2004 7.23427,42 l 1.76315,12.3629 14.47784,0.542 c 34.62513,1.2961 78.56897,0.9872 91.1361,-0.6406 z m -275.15826,-9.8498 c 0,-3.4955 -5.65602,-18.7705 -13.40271,-36.1961 -10.14538,-22.8213 -13.54328,-33.268 -14.30059,-43.9665 l -0.57414,-8.1109 -8.88655,-0.5758 c -6.90177,-0.4471 -11.84024,-1.5861 -22.11128,-5.0995 -20.75073,-7.0982 -33.72473,-9.5218 -33.72473,-6.2999 0,2.6251 7.96848,17.6704 16.54772,31.2439 4.84344,7.663 10.75162,18.0394 13.12927,23.0586 4.99622,10.5472 5.3992,14.7805 2.33751,24.5555 -1.87947,6.0006 -1.89282,6.4119 -0.25,7.703 6.21198,4.882 23.81486,10.2427 42.7355,13.0144 16.55558,2.4253 18.5,2.4961 18.5,0.6733 z m 399.00613,-3.0131 c 27.83059,-3.2556 54.81349,-9.8219 105.10109,-25.5766 17.6674,-5.535 43.7859,-13.1565 54.7464,-15.9752 l 4.3536,-1.1196 -0.6952,-4.6835 c -1.4618,-9.8479 -7.0689,-24.2409 -16.8073,-43.1434 -21.4401,-41.6153 -22.0375,-43.5975 -21.937,-72.7902 0.033,-9.4875 -0.2535,-17.25 -0.6361,-17.25 -0.3825,0 -8.3311,2.9728 -17.6636,6.6062 -68.0698,26.502 -111.10811,39.4663 -154.3509,46.4948 -6.92959,1.1263 -12.76168,2.2102 -12.9602,2.4087 -0.19852,0.1986 -0.73111,5.0026 -1.18355,10.6756 -0.87706,10.9976 0.007,28.8091 2.52356,50.8147 2.15261,18.8268 2.90507,41.9788 1.67329,51.4844 -0.56906,4.3915 -0.9514,8.0678 -0.84963,8.1695 0.10176,0.1018 3.86251,0.9302 8.35721,1.8409 18.08748,3.665 31.73181,4.2191 50.32833,2.0437 z m -504.92573,-22.7885 c -13.00673,-38.4224 -28.60261,-67.293 -46.88513,-86.7922 l -7.7973,-8.3162 -1.84547,3.889 c -4.17368,8.7954 -3.01043,15.9605 5.67636,34.9636 5.83543,12.7656 7.60632,20.9475 5.88452,27.1879 -1.02982,3.7324 -1.80251,4.5062 -7.18665,7.1966 -3.31801,1.6581 -8.07155,3.3204 -10.56341,3.6941 -4.35703,0.6533 -4.69911,0.5141 -8.92603,-3.6343 -2.41745,-2.3726 -4.59796,-4.1112 -4.84559,-3.8635 -0.24762,0.2476 0.98045,3.1363 2.72904,6.4193 3.8834,7.2911 6.57344,8.9413 23.67926,14.5259 9.97292,3.2558 46.36061,12.3075 51.68659,12.8573 0.76708,0.079 0.19922,-2.7942 -1.60619,-8.1275 z m -94.56826,-38.75 c 3.36746,-12.9157 0.17418,-22.1127 -17.55098,-50.5485 -5.1259,-8.2233 -11.22139,-18.5037 -13.54551,-22.8452 l -4.22568,-7.8937 -0.67026,6.3937 c -0.38884,3.7093 -0.20409,8.4457 0.44006,11.2812 0.61067,2.6881 6.89992,16.1881 13.97611,30 7.34732,14.3411 13.80197,28.3294 15.04837,32.6125 3.33466,11.459 3.0157,10.7398 3.99171,9 0.4628,-0.825 1.60409,-4.425 2.53618,-8 z m 818.44938,-7.7003 c 24.3104,-12.6846 46.8068,-27.1229 91.0385,-58.4291 23.8102,-16.8523 46.8151,-32.2872 59.2317,-39.741 l 8.7317,-5.2417 -6.4249,-7.53 c -15.928,-18.6676 -23.3844,-42.568 -22.1839,-71.1079 0.3066,-7.2875 0.3923,-13.25 0.1904,-13.25 -0.2018,0 -11.6513,5.5759 -25.4434,12.3908 -55.4354,27.3918 -105.6033,47.2121 -146.6016,57.9192 l -13,3.3951 -0.8325,5.3974 c -0.4579,2.9686 -0.6012,10.3475 -0.3184,16.3975 0.8333,17.8259 5.7488,31.4166 20.3607,56.2943 11.3858,19.3849 18.2902,37.2906 18.2902,47.4331 0,3.5829 0.1868,3.852 2.25,3.2409 1.2375,-0.3666 7.8577,-3.5924 14.7115,-7.1686 z M 957.72938,1078.448 c 15.85928,-1.6052 34.44766,-5.3402 71.50002,-14.3664 35.0955,-8.5495 50.5522,-11.8212 61.75,-13.0705 6.684,-0.7457 6.801,-0.8594 5.2048,-5.0579 -0.5749,-1.512 -3.6852,-16.0538 -6.9119,-32.3151 -5.1398,-25.90325 -9.6357,-45.98718 -10.4853,-46.84049 -0.1504,-0.15104 -11.0249,1.54004 -24.1655,3.75796 -50.3765,8.50269 -158.43245,31.62753 -161.32875,34.52563 -1.36808,1.369 -1.53502,6.0122 -1.33645,37.1713 0.1248,19.5838 0.45564,35.8356 0.7352,36.1152 0.27957,0.2795 6.70245,0.8388 14.27309,1.2428 15.41813,0.8228 35.75036,0.3572 50.76479,-1.1625 z m -271.86589,-9.6258 c -2.24626,-36.2334 -2.16477,-37.485 2.96014,-45.463 l 2.38516,-3.713 -6.72897,-2.0784 c -11.84864,-3.6596 -29.60355,-6.0332 -56.25044,-7.5197 -25.80507,-1.4396 -43.38839,-4.7543 -58.07312,-10.94748 -4.52022,-1.90639 -8.6115,-3.22331 -9.09174,-2.92651 -1.62364,1.00346 -5.67873,10.00509 -7.194,15.96949 -0.82839,3.2607 -2.25118,11.1036 -3.16175,17.4286 -1.93106,13.4136 -4.27737,20.7857 -8.55878,26.8919 -2.41451,3.4436 -2.79238,4.5789 -1.75002,5.2582 2.87492,1.8733 23.96769,8.0518 35.46036,10.3871 11.62685,2.3625 33.19111,5.0698 45.86905,5.7586 3.3,0.1793 19.21618,0.4111 35.36928,0.5151 l 29.36928,0.1891 z m 168.36589,-27.903 0,-37.6529 -11.25,0.6104 c -6.1875,0.3358 -23.175,2.6376 -37.75,5.1152 -32.71822,5.5617 -46.44656,6.9845 -60.10834,6.2296 l -10.60834,-0.5863 -0.60334,6.4611 c -0.34935,3.7411 -2.89958,13.3053 -6.05769,22.7185 -6.20238,18.4871 -7.08302,22.772 -6.11962,29.7768 l 0.68501,4.9806 65.90616,0 65.90616,0 z m 540.93012,35.2596 c 14.3953,-5.8494 29.6482,-18.6425 42.4526,-35.6066 3.9438,-5.225 13.0086,-18.8781 20.1439,-30.3403 15.254,-24.50381 25.6949,-38.72078 34.9277,-47.55976 l 6.6852,-6.40008 -7.1567,0.66515 c -16.5599,1.53907 -41.3905,8.81182 -57.3268,16.79073 -41.8328,20.9445 -61.5848,51.07306 -54.1516,82.59976 1.5011,6.3664 7.2744,22.2445 8.0882,22.2445 0.2459,0 3.0978,-1.0771 6.3375,-2.3934 z m -890.93012,-6.9822 c 0,-0.2065 -1.21656,-3.019 -2.70346,-6.25 -2.24534,-4.879 -2.71134,-7.3148 -2.75,-14.3744 l -0.0465,-8.5 7.7234,-16.0991 c 8.1994,-17.0914 10.77656,-24.88088 10.77656,-32.57243 0,-4.748 -0.003,-4.75215 -4.25,-5.86806 -20.49191,-5.3843 -36.62945,-13.19002 -49.88585,-24.12978 l -4.63585,-3.82571 -3.49897,3.87294 c -4.44834,4.92378 -7.99829,11.12958 -10.36657,18.12216 -1.45342,4.29138 -1.86276,8.46661 -1.86276,19 0,11.87248 0.54065,16.30108 4.48471,36.73518 l 4.4847,23.2351 6.5153,-0.5785 c 8.51931,-0.7565 17.66834,1.2263 32.12244,6.9618 10.57399,4.1958 13.89285,5.216 13.89285,4.2708 z m -108.07476,-32.3744 c 3.5022,-13.1027 8.36101,-34.4979 10.16265,-44.74998 2.95798,-16.83213 3.69891,-43.67117 1.5757,-57.07662 -2.59707,-16.39722 -2.27884,-16.24001 -9.70881,-4.79631 -14.3116,22.04285 -23.63685,44.37651 -26.57095,63.63655 -2.52493,16.57416 -0.29948,27.06816 7.66367,36.13766 3.55811,4.0525 12.60698,10.5987 14.65061,10.5987 0.67364,0 1.67585,-1.6875 2.22713,-3.75 z m 746.67358,-9.2943 c 13.091,-5.8736 31.199,-11.8622 64.4012,-21.2987 47.0094,-13.36059 61.0064,-18.21174 80.5,-27.9 32.3263,-16.0661 50.1799,-36.39264 58.9724,-67.14102 2.3781,-8.31628 5.2844,-27.19247 4.3333,-28.14363 -0.6461,-0.64606 -27.4939,5.76398 -52.7905,12.604 -12.3667,3.34384 -47.7667,13.67206 -78.6667,22.95161 -30.9001,9.27954 -66.2319,19.64222 -78.5152,23.02818 -12.2833,3.38596 -22.5317,6.34443 -22.7743,6.57439 -0.2425,0.22995 0.55,4.56966 1.7612,9.64379 1.2112,5.07414 4.6345,21.3757 7.6073,36.2257 5.3016,26.48368 7.5239,36.49998 8.098,36.49998 0.1584,0 3.3414,-1.37 7.0733,-3.0443 z m 260.0846,-92.4884 c 73.0139,-13.38417 125.8511,-44.65749 149.0677,-88.23026 7.9994,-15.01328 14.2489,-38.25761 14.2489,-52.99722 l 0,-6.49822 -7.25,0.69731 c -27.3526,2.6308 -54.0809,13.34814 -98.75,39.59625 -27.4574,16.1343 -46.9757,26.34265 -61.3912,32.10859 l -10.8912,4.35627 0.8512,17 c 0.4681,9.35 0.8473,23.525 0.8427,31.5 -0.01,12.40035 -0.3133,15.26022 -2.1139,19.75 -2.5618,6.38793 -3.6195,6.20114 15.3858,2.71728 z M 356.98715,912.32222 c 4.36624,-7.20762 11.23039,-28.09517 9.72685,-29.59871 -1.13717,-1.13717 -12.51324,15.22944 -16.37128,23.55314 l -2.38666,5.14921 2.38666,3.01785 c 1.31266,1.65982 2.62908,3.04275 2.92537,3.07318 0.29629,0.0304 1.96987,-2.30717 3.71906,-5.19467 z m 387.18441,40.02264 c -17.02198,-5.95855 -32.42016,-18.82652 -65.72381,-54.92415 -9.46433,-10.25832 -20.47273,-21.6854 -24.46312,-25.3935 -7.63956,-7.09912 -20.85128,-17.45499 -22.26856,-17.45499 -0.4594,0 -4.08489,3.15098 -8.05665,7.00218 -7.62555,7.39408 -13.81659,10.93955 -19.16585,10.97586 -4.03962,0.0274 -6.6737,-3.6409 -11.86033,-16.51713 -5.56576,-13.81741 -4.27912,-12.82184 -12.67371,-9.80662 -9.13756,3.28208 -17.5962,7.51844 -35.23015,17.6444 -7.7,4.42158 -17.33274,9.55885 -21.40608,11.41616 -13.10307,5.97454 -28.60221,9.18581 -37.72926,7.81713 l -4.64756,-0.69695 9.89145,-4.27282 c 47.56611,-20.54717 86.29029,-46.3065 167.89145,-111.68139 20.9,-16.74407 41.94351,-33.50915 46.76336,-37.25573 l 8.76337,-6.81197 -0.26337,-33.15656 -0.26336,-33.15656 -7,-3.72734 c -29.53672,-15.72765 -58.36186,-21.33596 -148,-28.79535 -45.0194,-3.74636 -70.80057,-7.76938 -93.09403,-14.52683 -12.02073,-3.64365 -21.40991,-7.11049 -22.72485,-8.39088 -1.2556,-1.2226 5.38214,-17.8337 9.75171,-24.40387 8.59067,-12.91712 20.21007,-22.99695 35.06717,-30.42075 49.2072,-24.58788 138.45442,-16.42966 209.19316,19.12267 21.41277,10.76177 39.03469,24.52606 50.11254,39.14235 2.50111,3.3 4.58743,6.08192 4.63627,6.18205 0.0488,0.10013 4.49257,-1.12721 9.87497,-2.72742 22.39043,-6.65676 36.52495,-7.47287 48.22427,-2.78441 l 5.95879,2.38797 -0.26351,6.47091 c -0.65969,16.20002 -7.48571,22.65454 -34.46537,32.58962 -15.22224,5.60549 -19.03361,7.61128 -24.91316,13.11091 l -4.85796,4.54405 0,43.7181 0,43.71811 -5.25,4.94987 c -6.66137,6.28056 -13.31129,10.75056 -33.25,22.35027 -8.8,5.11956 -18.475,11.13126 -21.5,13.35932 -11.07195,8.15506 -19.34035,18.22328 -23.33045,28.4089 l -1.67596,4.27824 6.13657,10.22176 c 21.88059,36.44676 43.02308,58.63235 67.45865,70.78681 7.57919,3.76996 9.81428,4.43269 14.95297,4.43372 7.10319,10e-4 11.72818,-2.10565 23.95822,-10.91504 13.01068,-9.37168 12.1267,-9.17772 20.12647,-4.41598 3.78044,2.25025 7.23186,4.41389 7.66982,4.80809 1.00607,0.90555 -5.2073,15.1754 -10.89599,25.02415 -7.35758,12.73805 -16.60753,22.49171 -25.83081,27.23744 -6.25168,3.21672 -17.30736,3.4476 -25.62731,0.5352 z M 558.22938,582.56364 c 6.325,-0.52738 17.08224,-0.9662 23.90499,-0.97515 12.10151,-0.0159 12.36313,-0.0625 10.69417,-1.9067 -0.94095,-1.03974 -4.4982,-3.38893 -7.90499,-5.22043 -5.68611,-3.05686 -7.05541,-3.3597 -16.69417,-3.69223 -5.775,-0.19924 -19.2098,0.34995 -29.85512,1.22042 -10.64532,0.87047 -22.30256,1.58267 -25.90499,1.58267 -6.49098,0 -6.53356,0.018 -4.73619,2.00409 2.56725,2.83678 11.42973,6.9765 17.14679,8.00937 4.99118,0.90174 13.34922,0.64559 33.34951,-1.02204 z M 1697.283,940.97663 c -2.9956,-0.80518 -5.5687,-1.5862 -5.7181,-1.7356 -0.1494,-0.14939 3.628,-1.08215 8.3943,-2.07278 10.3252,-2.14603 26.2861,-7.57218 34.7043,-11.79833 36.153,-18.1496 59.4991,-58.16737 65.6883,-112.59695 l 2.1094,-16.76411 3.2809,4.59975 3.1441,3.60792 -2.1092,18.70702 c -2.8622,25.38543 -13.5068,72.95851 -15.4911,76.50993 -1.4469,2.58979 -37.6071,25.24603 -50.5565,31.67633 -13.442,6.67493 -28.024,11.51125 -34.3619,11.3966 -2.0009,-0.0362 -6.089,-0.7246 -9.0845,-1.52978 z m -675.0436,-36.82658 -7.4899,-2.28441 -0.7976,-4.39671 c -0.9868,-5.43924 -0.017,-14.39849 1.9914,-18.39567 0.8293,-1.65057 7.0127,-8.41087 13.7408,-15.02289 10.5932,-10.41038 12.4782,-12.75617 14.0625,-17.5 1.0062,-3.01298 1.8557,-7.50315 1.8877,-9.97815 0.063,-4.85569 -2.2103,-19.06717 -3.3431,-20.90006 -1.3889,-2.2472 -20.0553,-5.92156 -40.9321,-8.05718 -20.66346,-2.1138 -31.78913,-4.2023 -39.46009,-7.40744 -3.1795,-1.32848 -3.66833,-1.97416 -3.65986,-4.83429 0.005,-1.81557 1.07658,-5.55103 2.38047,-8.30103 6.72306,-14.17951 25.48431,-22.06301 46.33858,-19.47156 12.6016,1.56592 23.6338,3.80609 32.6973,6.63938 11.3029,3.53336 26.6419,11.76134 33.1255,17.7688 7.9471,7.36338 8.8014,11.48041 8.198,39.50491 -0.412,19.13227 -0.7567,22.66177 -3.0629,31.36203 -5.2862,19.94253 -15.1186,34.25824 -27.9246,40.65747 -7.7062,3.85084 -16.5072,4.04644 -27.7521,0.6168 z m -757.01002,-9.63706 c -14.31467,-9.62396 -22.37282,-13.55188 -44,-21.44769 -22.13616,-8.08163 -34.17414,-13.78277 -43.21333,-20.46568 -7.56733,-5.59472 -8.94616,-7.82282 -14.22363,-22.98462 -15.11934,-43.43674 -16.14545,-87.4384 -2.98815,-128.13798 14.49317,-44.83187 51.99273,-85.06596 98.26447,-105.43011 11.46531,-5.04587 13.58631,-5.26578 28.74777,-2.98059 19.69276,2.96817 37.73866,1.91743 77.41287,-4.50745 15.17235,-2.45702 21.03228,-3.01107 26.40432,-2.49649 12.19184,1.16784 23.89218,5.89026 29.51999,11.91468 1.33338,1.42734 2.23338,2.59427 2,2.59318 -0.23337,-10e-4 -6.72431,-0.64897 -14.42431,-1.43972 -71.70404,-7.36369 -133.89543,4.61599 -178.6741,34.41725 -61.27683,40.78118 -80.91874,106.43542 -55.46115,185.38213 2.43675,7.55661 5.64633,15.4938 7.1324,17.63821 5.52832,7.97737 19.28801,15.05777 46.90453,24.13591 26.95471,8.8606 42.50218,16.91403 46.10557,23.88223 1.10482,2.13647 1.49098,5.14549 1.28588,10.01974 l -0.29313,6.96629 z m 1430.50272,1.31079 c -2.2566,-6.35811 -3.0761,-21.5988 -1.585,-29.47686 1.6761,-8.8549 3.2698,-13.62333 12.1239,-36.2747 4.2998,-11 8.5845,-23.80827 9.5218,-28.46282 2.4251,-12.04413 1.5629,-30.9429 -2.0318,-44.53718 -11.4866,-43.43907 -39.1277,-72.55752 -81.0316,-85.36276 -19.3224,-5.90464 -25.3138,-6.61955 -55.5532,-6.62881 l -27.5532,-0.008 -7.9468,6.61012 c -24.7432,20.58129 -56.1034,35.23392 -97.9468,45.76424 -52.196,13.13569 -116.4537,15.15232 -160.5,5.03706 -56.1506,-12.89502 -87.6329,-42.48147 -90.6798,-85.21908 l -0.6279,-8.80766 2.9039,0.65794 c 18.6547,4.22674 29.6211,10.18263 56.9038,30.90475 9.35,7.10163 20.078,14.90415 23.8399,17.33894 27.9586,18.09528 66.3268,23.58225 106.3939,15.21523 22.1641,-4.62842 43.2688,-13.62966 84.2662,-35.93985 40.1218,-21.83369 62.844,-28.52553 101,-29.74512 77.1706,-2.46662 143.8006,34.08216 173.9821,95.43499 10.5265,21.3982 14.312,37.91696 14.2651,62.24844 -0.047,24.23985 -3.59,39.59764 -14.038,60.84378 -8.2991,16.87652 -24.0915,37.66301 -37.6738,49.58758 l -6.3463,5.57177 -1.6864,-4.75157 z M 979.72938,885.21909 c -11.5572,-8.10556 -28.10644,-11.46654 -47.90174,-9.72836 -6.10404,0.53599 -18.07326,1.72026 -26.59826,2.63173 -20.81323,2.22528 -34.85842,1.24928 -46.83007,-3.25422 -4.21582,-1.58592 -4.3126,-1.72198 -3.66814,-5.15723 1.08291,-5.77242 5.37072,-13.14446 10.6179,-18.25537 19.32365,-18.82183 69.85678,-23.09399 118.94579,-10.05589 l 10.43452,2.77142 0.29078,9.44626 c 0.17914,5.81973 -0.31822,12.45177 -1.29552,17.27492 -1.63088,8.04876 -5.76069,18.73614 -7.19023,18.60734 -0.44277,-0.0399 -3.50503,-1.96616 -6.80503,-4.2806 z m -720.1398,-52.1232 c -3.92689,-0.71271 -8.87689,-1.8513 -11,-2.53021 -12.33141,-3.94324 -23.55522,-13.49387 -29.35126,-24.97575 -2.6559,-5.2613 -8.00894,-22.77958 -8.00894,-26.20992 0,-1.89221 8.24532,3.76707 9.73459,6.68145 4.30493,8.42445 13.41457,17.76027 30.26541,31.01692 10.15866,7.99186 19,15.77052 19,16.7163 0,1.00749 -1.94078,0.88003 -10.6398,-0.69879 z m 971.68702,-12.71516 c -11.2303,-4.49417 -20.4064,-5.89964 -38.3923,-5.88041 -8.7148,0.009 -17.2648,0.25682 -19,0.55001 -8.8595,1.49693 -36.3423,2.38335 -46.4348,1.49769 -25.1961,-2.21104 -35.4324,-9.492 -38.4969,-27.38222 -1.4158,-8.2657 0.071,-13.88967 4.3619,-16.49915 2.7675,-1.68298 3.3599,-1.70315 8.4456,-0.28762 3.0081,0.83727 5.4693,1.82198 5.4693,2.18823 0,0.53831 -5.4842,4.86741 -10.3185,8.14519 -0.5689,0.38568 -0.323,2.46379 0.6185,5.22676 5.3021,15.56075 18.4289,20.07408 56.7,19.49488 11.825,-0.17896 33.2,-0.32412 47.5,-0.32258 27.3123,0.003 32.5516,0.65029 35.987,4.44636 1.8709,2.06729 3.4627,12.09718 1.8902,11.90984 -0.4824,-0.0575 -4.231,-1.44662 -8.33,-3.08698 z m 574.1517,-18.23481 -3.2363,-3.68593 0.7687,-8.19389 c 1.1897,-12.68088 0.8013,-71.80871 -0.5563,-84.69388 -1.1094,-10.52867 -1.6315,-12.37074 -6.1817,-21.80913 -11.6404,-24.14505 -30.1776,-45.8067 -49.9933,-58.41961 -8.8111,-5.60836 -17.4117,-9.6299 -28.6049,-13.37539 -23.0836,-7.72427 -39.3963,-9.85276 -91.3089,-11.91406 -21.2224,-0.84268 -40.8362,-1.87254 -43.5862,-2.28857 l -5,-0.75643 8.5,-1.96841 c 7.7558,-1.79605 12.1774,-1.96463 50.5,-1.92535 41.429,0.0425 42.1847,0.0795 55.5824,2.7247 52.5128,10.3679 86.861,35.96352 104.5518,77.91003 11.7457,27.85002 16.3357,61.07319 14.2747,103.32222 -0.6171,12.65 -1.4262,24.29592 -1.7979,25.87982 l -0.6759,2.87982 z m -1591.57418,-29.08641 -3.7391,-4.98729 0.56302,-12 c 0.48088,-10.24949 4.44081,-58.64792 6.16187,-75.31061 0.53113,-5.14216 0.74402,-5.45453 6.71139,-9.84746 8.74534,-6.43795 18.61726,-12.05099 30.17808,-17.15883 11.46982,-5.06765 36.55608,-14.46036 37.11861,-13.89783 0.20767,0.20768 -1.05553,2.54119 -2.8071,5.18559 -4.29736,6.48782 -12.91042,12.67298 -27.31151,19.61279 -26.17544,12.61379 -33.25151,19.81402 -37.03974,37.68966 -1.00091,4.723 -1.4307,13.7796 -1.4429,30.40433 -0.0173,23.56638 -1.06281,36.49709 -3.41767,42.26818 l -1.23586,3.02876 z m 210.02435,-5.63503 c -0.20164,-0.74374 -1.07065,-5.05826 -1.93113,-9.58781 -2.11974,-11.15825 -7.4583,-21.96132 -14.16878,-28.67179 -9.97505,-9.97505 -22.60065,-13.80013 -45.54918,-13.79967 -15.92224,3.2e-4 -25.56611,1.42924 -59,8.74194 -21.62122,4.72901 -42.54003,8.46507 -47.39739,8.46507 -2.03385,0 -1.54686,-2.48028 2.51791,-12.82382 8.9453,-22.76294 24.84135,-36.23827 50.37948,-42.70746 46.66441,-11.82079 126.36164,10.65311 173.207,48.84282 l 8.20701,6.69059 15.04662,-10.07398 c 26.20701,-17.54604 30.85059,-18.9109 43.13421,-12.67815 6.39375,3.24421 6.40463,3.25713 6.11037,7.25 -2.08512,28.29349 -16.68316,42.66387 -49.96668,49.18745 -11.0306,2.162 -80.04862,3.15957 -80.58944,1.16481 z m 575.772,-98.03299 c -3.2566,-2.70298 -11.77109,-8.5786 -18.92109,-13.05695 -23.57207,-14.76416 -31.29387,-21.91445 -37.29245,-34.53234 -3.22812,-6.79028 -3.67525,-8.65127 -3.67805,-15.30847 -0.003,-6.71837 0.41409,-8.42279 3.67349,-15.01774 10.06527,-20.36568 33.79035,-43.76443 60.21593,-59.38765 37.7834,-22.33818 86.2538,-36.85568 142.5811,-42.70486 18.8202,-1.95435 64.1651,-1.64118 81.5,0.56286 41.0044,5.21351 77.192,16.49143 104,32.41179 31.0475,18.43807 55.111,48.13683 64.0798,79.0862 l 2.4675,8.51501 -2.7736,2.23072 c -4.6154,3.7119 -12.8559,8.44227 -19.4949,11.19076 -5.2369,2.16804 -8.2378,2.66625 -18.0841,3.00235 -14.8523,0.50698 -22.7978,-0.66386 -49.6591,-7.31765 -29.3121,-7.26089 -35.2737,-8.28119 -55.4337,-9.48721 -70.5272,-4.21909 -153.5356,16.12559 -232.1709,56.90315 l -15.0888,7.82454 z m 26.86743,-47.76518 c 9.6192,-2.46016 18.8106,-6.70883 36.328,-16.7923 18.6298,-10.72377 25.3158,-14.01853 35.3835,-17.43639 11.7926,-4.00346 23.2741,-5.8254 36.7104,-5.8254 l 11.4485,0 -0.6732,-3.25 c -0.3702,-1.7875 -2.9383,-10 -5.7068,-18.25 -4.5865,-13.66747 -5.0446,-15.86582 -5.1563,-24.74629 -0.067,-5.36046 -0.434,-9.74796 -0.8146,-9.75 -1.5324,-0.008 -52.647,16.30147 -62.8166,20.04358 -24.8,9.12565 -46.148,20.17619 -57.9473,29.99565 -12.2696,10.21089 -20.04412,25.13797 -20.04412,38.48484 0,6.83415 0.0592,6.89543 8.50002,8.79106 5.24,1.17679 17.7348,0.53929 24.7885,-1.26475 z m 321.0031,-37.05409 c -0.7784,-5.95169 -2.3427,-8.80098 -6.8676,-12.50874 -9.5551,-7.82971 -24.1595,-12.07356 -38.3009,-11.12977 -4.6074,0.30749 -8.6171,0.79917 -8.9106,1.09263 -1.0838,1.08386 2.0194,11.70395 4.1405,14.1699 1.9849,2.30758 3.5907,2.73256 16.9305,4.48068 15.2898,2.00365 22.7402,4.14801 28.7165,8.26516 3.0907,2.12924 3.573,2.21935 4.1247,0.77066 0.3436,-0.90228 0.4187,-3.21552 0.1669,-5.14052 z m 84.434,47.57797 c -5.8043,-2.38684 -16.7256,-9.89819 -16.7256,-11.50338 0,-1.41372 2.8286,-2.07514 8.8318,-2.06521 8.322,0.0138 16.3762,4.93933 21.6509,13.24062 l 1.7473,2.75 -4.865,-0.0237 c -2.7823,-0.0136 -7.337,-1.04026 -10.6394,-2.39829 z m 17.7744,-22.92064 c -5.3721,-1.78332 -11.8543,-5.17442 -13.3608,-6.98954 -1.0708,-1.29035 0.5912,-1.52224 13.0669,-1.82309 13.4442,-0.32421 14.5693,-0.50659 18.9267,-3.06819 2.5481,-1.49792 4.8901,-3.39387 5.2045,-4.21323 0.6256,-1.63014 -0.9262,-2.01579 -12.3373,-3.06604 -15.6308,-1.43861 -32.8863,-7.52151 -41,-14.45328 l -3.5,-2.99016 8.5,-0.0138 c 9.1962,-0.0149 18.8124,1.80115 40,7.55406 11.7987,3.20362 14.9807,3.67486 25.25,3.73943 7.4729,0.047 11.7464,0.45474 11.7402,1.12017 -0.028,3.01449 -5.2675,11.57916 -9.4105,15.38309 -7.8396,7.19803 -14.0746,9.41618 -27.5797,9.81163 -7.7248,0.2262 -12.8131,-0.0992 -15.5,-0.99109 z M 728.48723,550.06934 c -5.30154,-6.43246 -6.5339,-11.75233 -5.9788,-25.80957 0.2647,-6.70315 1.05276,-17.36255 1.75124,-23.68755 1.98997,-18.01974 1.40759,-19.69834 -12.11902,-34.93062 -9.82352,-11.06224 -16.83441,-20.59795 -15.78276,-21.46656 0.20432,-0.16876 3.82266,-1.22935 8.04075,-2.35686 l 7.66926,-2.05002 1.25155,3.0215 c 1.77718,4.29051 11.10937,18.96899 15.35082,24.14512 l 3.58152,4.37077 -0.26121,41.34876 -0.2612,41.34877 z m 663.21907,-55.66556 c -5.8166,-9.4236 -18.429,-24.63803 -27.4926,-33.16436 -40.4351,-38.0385 -100.0648,-63.22434 -182.4843,-77.07608 -49.3601,-8.29565 -92.2676,-11.1266 -156.75,-10.34207 -23.5125,0.28607 -42.75002,0.38313 -42.75002,0.21569 0,-1.07999 17.31488,-3.83473 35.79882,-5.69546 29.9082,-3.0108 105.4712,-3.2786 131.2012,-0.46498 99.2435,10.85243 176.9328,40.42984 217.5261,82.81526 9.788,10.22013 16.1535,19.01083 21.4976,29.68793 4.0134,8.01856 8.3056,19.19658 7.6304,19.87176 -0.1931,0.1931 -2.0728,-2.43836 -4.1772,-5.84769 z m -959.88588,-0.33156 c 1.66402,-16.02903 7.51945,-35.00224 16.20233,-52.5 5.36801,-10.81761 6.122,-11.81577 12.70663,-16.82152 8.81976,-6.70493 27.42586,-15.82076 43,-21.06733 57.73784,-19.45053 125.32533,-23.11233 193.5,-10.48355 7.425,1.37541 18.45,3.3943 24.5,4.4864 10.72616,1.93622 20.13777,5.34323 23.72288,8.5877 0.97741,0.88455 1.77712,2.87942 1.77712,4.43305 0,3.66587 -2.88814,10.86534 -4.35858,10.86495 -0.62778,-1.6e-4 -5.64142,-1.61032 -11.14142,-3.57812 -24.69584,-8.83573 -51.92567,-15.37754 -79.5,-19.09941 -19.08029,-2.57537 -69.13343,-2.56594 -86.5,0.0163 -42.23337,6.2797 -75.33723,20.13787 -98.17093,41.09698 -13.37491,12.27687 -21.11391,23.63755 -28.71494,42.15293 -2.46371,6.00139 -5.19194,12.48661 -6.06273,14.41161 l -1.58324,3.5 0.62288,-6 z m 538.60077,-8.73813 c -4.13897,-11.10726 -5.61536,-24.98877 -4.36575,-41.04836 0.81724,-10.50295 0.93216,-10.8841 4.37161,-14.5 1.94277,-2.04243 8.77328,-10.78438 15.17891,-19.42656 11.90583,-16.06277 18.80864,-22.78695 23.39224,-22.78695 1.3646,0 5.1099,1.17975 8.323,2.62166 l 5.8418,2.62167 -5.8338,3.77059 c -7.6286,4.93056 -18.90721,15.63058 -25.18483,23.89278 -2.75527,3.62632 -7.3508,11.3183 -10.21228,17.0933 l -5.20271,10.5 -0.64181,17.5 c -0.90997,24.81224 -2.15995,29.17163 -5.66638,19.76187 z m 491.21871,2.12967 c -1.0508,-1.1664 -8.4624,-7.64716 -16.4704,-14.40169 -101.3671,-85.50127 -208.278,-135.17609 -323.7009,-150.40352 -29.6788,-3.91545 -41.9298,-4.58634 -83.7392,-4.58574 -58.77776,8.4e-4 -73.06047,1.64926 -129.48595,14.9445 -67.27779,15.85232 -77.67549,17.01273 -152.51407,17.02098 -66.42405,0.007 -107.78699,-2.95225 -209.71934,-15.00576 -20.74563,-2.45317 -40.27086,-4.46031 -43.3894,-4.46031 -6.45992,0 -8.52445,1.07239 -24.83601,12.90074 -9.247,6.70547 -21.02924,13.14827 -26.30671,14.38512 -2.24235,0.52553 -2.24437,0.51489 -0.5,-2.6291 2.75606,-4.96741 18.22751,-19.8133 24.50207,-23.51137 15.2105,-8.9647 24.67982,-11.24641 49.24939,-11.86708 24.20914,-0.61156 35.29263,0.56561 77.5,8.23121 37.1245,6.74246 48.18662,8.23938 70,9.47231 55.15432,3.11742 113.86234,-1.20943 210.86115,-15.54074 16.85137,-2.48974 39.60565,-5.85275 50.56508,-7.47335 35.3157,-5.22222 59.70657,-7.11444 99.17219,-7.69366 38.1374,-0.55972 59.3927,0.33515 89.9016,3.78497 118.999,13.45589 222.7421,59.08317 300.2284,132.04362 16.1232,15.1815 28.6558,28.62413 36.3016,38.9378 4.962,6.69335 6.463,10.38266 2.3805,5.85107 z"
     id="path3346"
     inkscape:connector-curvature="0"
     sodipodi:nodetypes="cssssssssssssscssssssssssssscssssssssssscccssscsssssssscssssssssssscsscsssssssssssssssssssssssscssssssssssssscssscccsscssccccssscssscsssccsssssssssssscsssssssscscssscsccsssssssssssssssssscsccsssssccssssssssssccssssscssccscscscscssccsscsccsssccssssssssssscsscssscscscsssscsssccscsscsssscsssscsssscssssscsssscsssscscscscsssscssssssscssscscccsccssscccccssscsssscssscsssscsssscssssssssssscssscssscssscssscssscscssssscscsssssssssssscssscccsssssssscsscssscccsssscsscssssssssssssssssscssscccscsssscccscccsscsssssssssssssssssscssssssscsccscssccsssscssssssscsscccssssssscsscsssssssssscssscssccssscsccssssssscssssscccccsssscsssssccssssssssscsssssssscssssssccssssscsssssccsccssssscsscssscccsscccccccsccsscssscssccsssssscsscccsssssssssscscssssssscsssssscccsssssccssscssssssssssssssssssssssss" />
</svg>
