<svg xmlns="http://www.w3.org/2000/svg" xmlns:xlink="http://www.w3.org/1999/xlink" version="1.1" x="0px" y="0px" viewBox="0 0 100 125" style="enable-background:new 0 0 100 100;" xml:space="preserve"><style type="text/css">
	.st0{fill:#010101;}
</style><path class="st0" d="M42.8,62.7c-3.7-6.2-11.5-6.9-17.3-3c-6.4,4.3-9.6,12.7-6.8,20c2.8,7.1,9.7,11.3,17.2,11.1  c7.1-0.2,15-4.1,15.4-11.9c-1.6,0.4-3.1,0.8-4.7,1.3c7.7,12.5,29.1,12.9,36.1-0.7c6.6-12.8-9.9-33.7-22.2-21.1  c-2.2,2.3,1.3,5.9,3.5,3.5c4.4-4.6,10.8-0.9,13.5,3.7c3.1,5.3,2.1,11.5-2.7,15.4c-7.2,5.7-19.1,4.7-24-3.4c-1.3-2.2-4.5-1.2-4.7,1.3  c-0.3,5.2-6.9,7-11.2,6.9c-4.9-0.1-9.4-2.6-11.5-7.1c-2-4.3-1.1-8.6,1.8-12.2c3.2-3.9,9.6-6.6,12.9-1.2C40.2,68,44.5,65.5,42.8,62.7  L42.8,62.7z"/><path class="st0" d="M74.3,55C71.3,38,68.8,4.7,44.3,5.6c-8.1,0.3-17.6,6.8-19,15.1c-1,5.6,0.1,11.8,0.6,17.4  c0.6,6.6,1.3,13.2,2.2,19.8c0.4,3.1,5.4,3.2,5,0c-1.2-9.4-2.2-18.8-2.8-28.3c-0.3-5.1-0.9-10.2,3.4-13.9c3.4-2.9,7.6-5.3,12.1-5.1  c19.9,1.1,21.1,31.5,23.7,45.8C70.1,59.5,74.9,58.2,74.3,55L74.3,55z"/><path class="st0" d="M26.8,25.9c7.2,1.3,14.4,1.3,21.6-0.3c4-0.9,13.6-2.6,13.8-7.8c0.1-3.2-4.9-3.2-5,0c0-0.2-6,1.9-6.8,2.1  c-2.2,0.6-4.4,1.2-6.6,1.5c-5.2,0.8-10.4,0.6-15.6-0.3C25,20.6,23.6,25.4,26.8,25.9L26.8,25.9z"/><path class="st0" d="M40.2,8.7c0,2.5,0.3,4.9,0.7,7.3c0.2,1.3,1.9,2.1,3.1,1.7c1.4-0.4,2-1.7,1.7-3.1c-0.4-2-0.5-4-0.5-6  C45.1,5.4,40.1,5.4,40.2,8.7L40.2,8.7z"/><g><g><path class="st0" d="M44.7,38.2c0.8-1.2,0.4-2.9-0.7-3.7c-1.1-0.8-2.4-0.7-3.5-0.1c-1.2,0.6-1.6,2.4-0.9,3.5    c0.8,1.2,2.2,1.5,3.5,0.9c-0.2,0.1-0.5,0.2-0.7,0.2c-0.4-0.1-0.8-0.2-1.3-0.3c-0.1-0.1-0.2-0.2-0.3-0.2c-0.2-0.4-0.4-0.7-0.6-1.1    c0-0.2,0-0.3-0.1-0.5c0.1-0.4,0.2-0.8,0.3-1.3c0,0,0,0.1-0.1,0.1c-0.7,1.1-0.2,2.9,0.9,3.5C42.4,39.8,43.9,39.4,44.7,38.2    L44.7,38.2z"/></g></g><g><g><path class="st0" d="M56.6,39.4c3.9,0,3.9-6.1,0-6.1S52.7,39.4,56.6,39.4L56.6,39.4z"/></g></g><path class="st0" d="M59.5,43.7C53,44.6,46.5,45.4,40,46.4c-2.1,0.3-1.2,3.5,0.8,3.1c6.2-0.8,12.5-1.7,18.7-2.5  C61.6,46.7,61.6,43.5,59.5,43.7L59.5,43.7z"/><path class="st0" d="M38.5,49.3c1.8,4.7,7.8,7.9,12.7,7.3c5.3-0.7,8.9-5.1,10.3-10c0.6-2-2.5-2.9-3.1-0.8c-1,3.3-3.1,6.5-6.6,7.5  s-8.8-1.2-10.1-4.7C40.9,46.5,37.8,47.3,38.5,49.3L38.5,49.3z"/></svg>